<svg xmlns="http://www.w3.org/2000/svg" width="32" height="32" viewBox="0 0 32 32">
  <!-- Cave mushroom: pale stalk, domed cap, glowing spots. -->
  <path d="M13.5 17h5v8.5a2.5 2.5 0 0 1-5 0z" fill="#d9d2c4"/>
  <path d="M16 5.5c6 0 10 4.6 10 8.6 0 1.6-1.2 2.4-3 2.4H9c-1.8 0-3-.8-3-2.4 0-4 4-8.6 10-8.6z" fill="#5a4a7d"/>
  <path d="M16 5.5c-3.2 0-5.6 2.4-5.6 5.4 0 1.6.6 2.6 1.8 3.2h7.6c1.2-.6 1.8-1.6 1.8-3.2 0-3-2.4-5.4-5.6-5.4z" fill="#7a66a5"/>
  <g fill="#9be3d8">
    <circle cx="11.5" cy="11" r="1.9"/>
    <circle cx="20.5" cy="10.4" r="1.5"/>
    <circle cx="16.2" cy="8.2" r="1.2"/>
    <circle cx="23" cy="13.4" r="1.1"/>
    <circle cx="8.8" cy="13.6" r="1"/>
  </g>
</svg>
